<svg width="26" height="26" viewBox="0 0 26 26" fill="none" xmlns="http://www.w3.org/2000/svg">
<circle cx="13" cy="13" r="13" fill="#F0383B"/>
<path d="M18.3828 10.6875C18.459 10.6875 18.5352 10.6621 18.5859 10.6113C18.6367 10.5605 18.6875 10.4844 18.6875 10.3828V9.46875C18.6875 9.13867 18.5605 8.85938 18.332 8.60547C18.0781 8.37695 17.7988 8.25 17.4688 8.25H16.25V6.92969C16.25 6.85352 16.1992 6.77734 16.1484 6.72656C16.0977 6.67578 16.0215 6.625 15.9453 6.625H14.9297C14.8281 6.625 14.752 6.67578 14.7012 6.72656C14.6504 6.77734 14.625 6.85352 14.625 6.92969V8.25H11.375V6.92969C11.375 6.85352 11.3242 6.77734 11.2734 6.72656C11.2227 6.67578 11.1465 6.625 11.0703 6.625H10.0547C9.95312 6.625 9.87695 6.67578 9.82617 6.72656C9.77539 6.77734 9.75 6.85352 9.75 6.92969V8.25H8.53125C8.17578 8.25 7.89648 8.37695 7.66797 8.60547C7.41406 8.85938 7.3125 9.13867 7.3125 9.46875V10.3828C7.3125 10.4844 7.33789 10.5605 7.38867 10.6113C7.43945 10.6621 7.51562 10.6875 7.61719 10.6875H18.3828ZM7.61719 11.5C7.51562 11.5 7.43945 11.5508 7.38867 11.6016C7.33789 11.6523 7.3125 11.7285 7.3125 11.8047V18.4062C7.3125 18.7617 7.41406 19.041 7.66797 19.2695C7.89648 19.5234 8.17578 19.625 8.53125 19.625H17.4688C17.7988 19.625 18.0781 19.5234 18.332 19.2695C18.5605 19.041 18.6875 18.7617 18.6875 18.4062V11.8047C18.6875 11.7285 18.6367 11.6523 18.5859 11.6016C18.5352 11.5508 18.459 11.5 18.3828 11.5H7.61719ZM15.6406 15.0547V16.0703C15.6406 16.1719 15.5898 16.248 15.5391 16.2988C15.4883 16.3496 15.4121 16.375 15.3359 16.375H13.8125V17.8984C13.8125 18 13.7617 18.0762 13.7109 18.127C13.6602 18.1777 13.584 18.2031 13.5078 18.2031H12.4922C12.3906 18.2031 12.3145 18.1777 12.2637 18.127C12.2129 18.0762 12.1875 18 12.1875 17.8984V16.375H10.6641C10.5625 16.375 10.4863 16.3496 10.4355 16.2988C10.3848 16.248 10.3594 16.1719 10.3594 16.0703V15.0547C10.3594 14.9785 10.3848 14.9023 10.4355 14.8516C10.4863 14.8008 10.5625 14.75 10.6641 14.75H12.1875V13.2266C12.1875 13.1504 12.2129 13.0742 12.2637 13.0234C12.3145 12.9727 12.3906 12.9219 12.4922 12.9219H13.5078C13.584 12.9219 13.6602 12.9727 13.7109 13.0234C13.7617 13.0742 13.8125 13.1504 13.8125 13.2266V14.75H15.3359C15.4121 14.75 15.4883 14.8008 15.5391 14.8516C15.5898 14.9023 15.6406 14.9785 15.6406 15.0547Z" fill="white"/>
</svg>
