<svg width="26" height="26" viewBox="0 0 26 26" fill="none" xmlns="http://www.w3.org/2000/svg">
<circle cx="13" cy="13" r="12.5" stroke="#F0383B"/>
<path d="M13 6.82812C14.1172 6.82812 15.1836 7.13281 16.1484 7.69141C17.1133 8.25 17.875 9.01172 18.4336 9.97656C18.9922 10.9414 19.2969 12.0078 19.2969 13.125C19.2969 14.2676 18.9922 15.3086 18.4336 16.2734C17.875 17.2383 17.1133 18.0254 16.1484 18.584C15.1836 19.1426 14.1172 19.4219 13 19.4219C11.8574 19.4219 10.8164 19.1426 9.85156 18.584C8.88672 18.0254 8.09961 17.2383 7.54102 16.2734C6.98242 15.3086 6.70312 14.2676 6.70312 13.125C6.70312 12.0078 6.98242 10.9414 7.54102 9.97656C8.09961 9.01172 8.88672 8.25 9.85156 7.69141C10.8164 7.13281 11.8574 6.82812 13 6.82812ZM13.8633 11.6523C13.7617 11.7031 13.7109 11.8047 13.7109 11.9062C13.7109 12.0332 13.7617 12.1094 13.8633 12.1602L15.8945 13.3789C15.9707 13.4551 16.0469 13.4805 16.1484 13.4297C16.25 13.3789 16.3008 13.3027 16.3262 13.2012C16.3516 13.0996 16.3262 13.0234 16.2754 12.9219L15.4375 11.9062L16.2754 10.8906C16.3262 10.8145 16.3516 10.7129 16.3262 10.6113C16.3008 10.5098 16.25 10.459 16.1484 10.4082C16.0469 10.3574 15.9707 10.3828 15.8945 10.4336L13.8633 11.6523ZM9.72461 10.8906L10.5625 11.9062L9.72461 12.9219C9.64844 13.0234 9.62305 13.0996 9.64844 13.2012C9.67383 13.3027 9.72461 13.3789 9.82617 13.4297C9.92773 13.4805 10.0039 13.4551 10.1055 13.3789L12.1367 12.1602C12.2383 12.1094 12.2891 12.0332 12.2891 11.9062C12.2891 11.8047 12.2383 11.7031 12.1367 11.6523L10.1055 10.4336C10.0039 10.3828 9.92773 10.3574 9.82617 10.4082C9.72461 10.459 9.67383 10.5098 9.64844 10.6113C9.62305 10.7129 9.64844 10.8145 9.72461 10.8906ZM13 13.9375C12.543 13.9375 12.0859 14.0645 11.6289 14.293C11.1719 14.5469 10.791 14.8516 10.4863 15.2324C10.1309 15.6895 9.92773 16.1465 9.87695 16.6543C9.85156 16.832 9.87695 16.9844 9.97852 17.0859C10.0801 17.1875 10.1816 17.2129 10.3086 17.1621C10.9941 16.8828 11.8828 16.7305 13 16.7305C14.0918 16.7305 14.9805 16.8828 15.6914 17.1621C15.793 17.2129 15.8945 17.1875 15.9961 17.0859C16.0977 16.9844 16.123 16.832 16.123 16.6543C16.0469 16.1465 15.8438 15.6895 15.5137 15.2324C15.209 14.8516 14.8027 14.5469 14.3457 14.293C13.8887 14.0645 13.4316 13.9375 13 13.9375Z" fill="#F0383B"/>
</svg>
